<svg width="32" height="40" viewBox="0 0 32 40" fill="none" xmlns="http://www.w3.org/2000/svg">
<path d="M27.4266 5.24075H23.8078V3.62185C23.8078 3.09807 23.2364 2.86002 22.7127 2.86002H19.9034C19.2368 0.955395 17.5702 0.00308303 15.6656 0.00308303C13.782 -0.067732 12.0686 1.08727 11.4278 2.86002H8.66614C8.14236 2.86002 7.61859 3.09807 7.61859 3.62185V5.24075H3.99973C1.85523 5.26363 0.1008 6.95535 0 9.09758V36.3812C0 38.4763 1.90462 40 3.99973 40H27.4266C29.5217 40 31.4263 38.4763 31.4263 36.3812V9.09767C31.3255 6.95535 29.5711 5.26363 27.4266 5.24075ZM9.52312 4.76464H12.142C12.5992 4.70887 12.9664 4.36108 13.0467 3.90757C13.3287 2.67956 14.4061 1.79807 15.6656 1.76489C16.9135 1.80271 17.9746 2.68695 18.2368 3.90757C18.3222 4.37675 18.7137 4.72901 19.1891 4.76464H21.9033V8.57389H9.52312V4.76464ZM29.5217 36.3813C29.5217 37.4289 28.4741 38.0955 27.4266 38.0955H3.99973C2.95218 38.0955 1.90462 37.4289 1.90462 36.3813V9.09767C2.00178 8.00728 2.90515 7.16543 3.99973 7.14547H7.61849V9.57387C7.6688 10.1074 8.13088 10.5065 8.66605 10.4786H22.7126C23.2576 10.5084 23.7342 10.1148 23.8077 9.57387V7.14538H27.4265C28.521 7.16543 29.4244 8.00719 29.5216 9.09758V36.3813H29.5217Z" fill="#222222"/>
</svg>
