<svg width="28" height="16" viewBox="0 0 28 16" fill="none" xmlns="http://www.w3.org/2000/svg">
<path d="M27.5156 5.34784C23.5868 2.40137 18.913 0.84375 14 0.84375C9.08697 0.84375 4.41321 2.40137 0.484373 5.34784C0.235654 5.53461 0.0711647 5.81232 0.0272194 6.12024C-0.0164208 6.42816 0.0638405 6.74097 0.250608 6.98969L6.43683 15.2197C6.66723 15.5261 7.0188 15.6875 7.37463 15.6875C7.61908 15.6875 7.86596 15.6112 8.07684 15.4531C9.79864 14.1619 11.8467 13.4792 14 13.4792C16.153 13.4792 18.2014 14.1619 19.9232 15.4531C20.4404 15.8413 21.1744 15.7366 21.5629 15.2197L27.7491 6.98969C27.9362 6.74097 28.0164 6.42816 27.9725 6.12024C27.9288 5.81262 27.7643 5.53461 27.5156 5.34784ZM20.3599 12.9196C18.779 11.9521 17.0176 11.3662 15.1719 11.1917V7.61987C15.1719 6.9726 14.6473 6.448 14 6.448C13.3527 6.448 12.8281 6.9726 12.8281 7.61987V11.1917C10.9824 11.3662 9.22094 11.9521 7.64013 12.9196L2.84918 6.54565C6.16003 4.34503 9.99121 3.1875 14 3.1875C18.0088 3.1875 21.84 4.34503 25.1508 6.54565L20.3599 12.9196Z" fill="#222222"/>
</svg>
